<svg xmlns="http://www.w3.org/2000/svg" width="120" height="120" viewBox="0 0 120 120" fill="none">
  <path d="M119.501 107.815C122.395 102.087 114.123 73.4492 56.7691 73.4492C15.371 73.4492 -3.62965 96.8901 0.571003 108.77" fill="url(#paint0_radial_1841_18534)"/>
  <mask id="mask0_1841_18534" style="mask-type:luminance" maskUnits="userSpaceOnUse" x="0" y="73" width="120" height="36">
    <path d="M119.501 107.815C122.395 102.087 114.123 73.4492 56.7691 73.4492C15.371 73.4492 -3.62965 96.8901 0.571003 108.77" fill="white"/>
  </mask>
  <g mask="url(#mask0_1841_18534)">
    <ellipse opacity="0.671968" cx="47.9237" cy="89.51" rx="3.15421" ry="1.75201" fill="url(#paint1_linear_1841_18534)"/>
    <ellipse opacity="0.729957" cx="80.1153" cy="86.8347" rx="4.97664" ry="2.73313" fill="url(#paint2_linear_1841_18534)"/>
    <ellipse opacity="0.729957" cx="23.4825" cy="79.5476" rx="4.97664" ry="2.73313" fill="url(#paint3_linear_1841_18534)"/>
  </g>
  <g opacity="0.320685">
    <ellipse cx="93.0754" cy="25.6793" rx="3.36449" ry="3.36385" fill="url(#paint4_linear_1841_18534)"/>
    <path d="M90.9655 23.0116C89.5214 22.8081 88.4659 22.9676 88.2678 23.512C87.95 24.3848 89.9572 25.9166 92.7509 26.9333C95.5447 27.9499 98.0671 28.0665 98.3848 27.1936C98.5848 26.6443 97.6684 25.8759 96.4106 25.0974" stroke="url(#paint5_linear_1841_18534)" stroke-width="4.20561"/>
    <path d="M96.449 25.6793C96.449 23.8215 94.9426 22.3154 93.0845 22.3154C91.2263 22.3154 90.0624 23.5032 89.8223 24.8425C89.8223 24.8425 91.7564 26.0533 92.6494 26.3135C92.9342 26.3965 93.2166 26.5042 93.5041 26.5997C93.8257 26.7064 94.1531 26.8006 94.4845 26.8823C94.7112 26.9382 95.0222 27.0246 95.3124 27.0786C95.6951 27.1497 96.0379 27.1815 96.0649 27.1815C96.1123 27.1815 96.1643 26.97 96.2714 26.7235C96.3785 26.477 96.449 25.6793 96.449 25.6793Z" fill="url(#paint6_linear_1841_18534)"/>
  </g>
  <circle opacity="0.418364" cx="19.1535" cy="45.5254" r="3.92308" fill="url(#paint7_linear_1841_18534)"/>
  <ellipse opacity="0.5" cx="61.613" cy="78.9856" rx="11.7692" ry="3.23077" fill="url(#paint8_linear_1841_18534)"/>
  <path d="M57.1113 12.459L58.4124 12.9326L34.3395 79.0725C34.2087 79.4318 33.8114 79.617 33.4521 79.4862C33.0929 79.3555 32.9076 78.9582 33.0384 78.5989L57.1113 12.459Z" fill="#D8D8D8"/>
  <path d="M57.0762 12.4922L67.2932 19.2238C68.1331 19.7772 69.0713 20.1645 70.057 20.3648C75.3912 21.4486 78.8688 26.6122 77.8681 31.9626L75.4546 44.8661C75.4434 44.9258 75.3585 44.9276 75.3439 44.8685C74.2241 40.3522 69.9632 37.312 65.3308 37.7492C63.2203 37.9484 61.1253 37.2362 59.5735 35.792L51.3734 28.1604L57.0762 12.4922Z" fill="#E57A77"/>
  <circle cx="57.6494" cy="12.27" r="0.923077" transform="rotate(20 57.6494 12.27)" fill="#D8D8D8"/>
  <path d="M42.1875 52.0184C42.1875 52.0184 42.8798 51.6723 42.8798 51.7876C42.8798 51.903 42.8798 53.1723 42.8798 53.1723L42.4183 53.403L42.1875 52.0184Z" fill="#FFE9E9"/>
  <path d="M55.293 75.1271C55.293 75.1271 55.0602 74.2786 54.4477 74.2235C53.8352 74.1684 52.1098 75.9937 51.7492 76.7473C51.3886 77.5008 52.3737 78.5572 53.4984 77.542C54.6231 76.5268 55.293 75.1271 55.293 75.1271Z" fill="#677285"/>
  <path d="M56.0143 77.6032L55.3109 75.6406C55.0276 74.8503 53.9508 74.7497 53.526 75.4739C53.4413 75.6184 53.3943 75.7807 53.3968 75.9482C53.4087 76.7421 53.5382 79.143 54.6633 79.4668C56.0143 79.8556 56.0143 77.6032 56.0143 77.6032Z" fill="url(#paint9_linear_1841_18534)"/>
  <path d="M64.6963 75.1271C64.6963 75.1271 64.9291 74.2786 65.5416 74.2235C66.1541 74.1684 67.8794 75.9937 68.2401 76.7473C68.6007 77.5008 67.6156 78.5572 66.4909 77.542C65.3662 76.5268 64.6963 75.1271 64.6963 75.1271Z" fill="#677285"/>
  <path d="M63.9769 77.6032L64.6803 75.6406C64.9636 74.8503 66.0404 74.7497 66.4652 75.4739C66.5499 75.6184 66.5969 75.7807 66.5944 75.9482C66.5825 76.7421 66.453 79.143 65.3279 79.4668C63.9769 79.8556 63.9769 77.6032 63.9769 77.6032Z" fill="url(#paint10_linear_1841_18534)"/>
  <path d="M56.2102 71.709C56.2102 71.709 55.8242 72.467 55.8242 72.9999C55.4382 73.8643 54.8024 75.0276 53.7012 77.4539C53.3138 78.3074 53.5095 78.8242 53.926 79.1356C55.1614 80.0594 56.8493 79.0617 58.0424 78.0838L59.888 76.571L63.3929 79.4651C64.0287 79.99 64.9486 79.9864 65.5802 79.4564C66.2297 78.9114 66.3994 77.9623 66.0251 77.2016C65.6044 76.3467 64.9799 75.0071 64.1232 72.9999C64.1232 72.4725 63.7865 71.9669 63.7865 71.9669L56.2102 71.709Z" fill="url(#paint11_linear_1841_18534)"/>
  <path d="M64.6163 65.7088C65.2459 66.6284 65.0779 68.9277 65.0779 68.9277H63.2317L63.8773 73.2675C63.9669 73.8702 63.6284 74.4547 63.0519 74.652C62.089 74.9816 60.6194 75.4304 59.604 75.4905C58.584 75.5509 56.9882 75.1349 55.9376 74.8154C55.3229 74.6285 54.9809 74.008 55.176 73.3957C55.4582 72.5099 55.9869 71.0508 56.9456 68.9277C57.3308 69.3782 55.1548 68.9277 55.1548 68.9277C55.1548 68.9277 55.2906 66.8802 55.8471 65.7088C56.4036 64.5375 57.6933 63.7551 57.6933 63.7551L60.9543 63.2598C60.9543 63.2598 62.3087 63.5243 63.001 63.8931C63.6933 64.2619 63.9868 64.7893 64.6163 65.7088Z" fill="url(#paint12_linear_1841_18534)"/>
  <path d="M64.9016 68.9166L64.8283 71.1036L64.5805 72.1981L62.8763 79.2282L63.1481 79.8147L63.3237 80.5763L63.1481 81.0609L62.6865 80.8887L61.7635 80.1378L61.6944 79.9307C61.5914 79.6217 61.6238 79.2836 61.7835 78.9998L62.0856 78.4631L63.3237 71.8997L63.1992 68.9993L64.9016 68.9166Z" fill="#FDE7E6"/>
  <path d="M55.2026 69.0001L55.4019 71.1044L55.6497 72.1988L57.3539 79.229L57.0821 79.8155L56.9064 80.577L57.0821 81.0616L57.5436 80.8894L58.4667 80.1386L58.5358 79.9314C58.6388 79.6225 58.6064 79.2844 58.4467 79.0006L58.1446 78.4638L56.9064 71.9005L57.0026 69.0001L55.2026 69.0001Z" fill="#FDE7E6"/>
  <path fill-rule="evenodd" clip-rule="evenodd" d="M60.7553 61.4697H58.9375V63.9055V63.9059H58.9378C58.9549 63.9306 59.6646 64.958 59.6646 65.2997C59.6646 65.6424 60.735 63.9378 60.755 63.9059H60.7553V63.9055V61.4697Z" fill="#FECECD"/>
  <ellipse cx="59.7464" cy="61.066" rx="1.61164" ry="2.4" fill="#FFE9E9"/>
  <path fill-rule="evenodd" clip-rule="evenodd" d="M57.975 61.4646C58.104 61.0072 58.104 59.9984 58.3618 59.9655C58.6197 59.9326 59.1354 60.1236 59.6512 59.753C59.909 59.5496 60.0379 59.5241 60.0379 59.4219C61.3273 59.6653 60.5562 60.4 61.1983 61.2093C61.2653 61.2937 61.4562 61.2093 61.4562 61.2093C61.4562 61.2093 61.4562 59.2166 61.3273 59.0389C61.1983 58.8611 60.6826 58.1451 60.4247 58.6558C60.4247 58.4005 59.909 58.137 59.3933 58.3326C58.8776 58.5282 58.104 58.9112 57.975 59.4219C57.8461 59.9326 57.7172 60.954 57.975 61.4646Z" fill="#513450"/>
  <defs>
    <radialGradient id="paint0_radial_1841_18534" cx="0" cy="0" r="1" gradientUnits="userSpaceOnUse" gradientTransform="translate(52.0444 85.6984) rotate(-90) scale(20.5361 214.479)">
      <stop stop-color="#EBEDF0" stop-opacity="0.24"/>
      <stop offset="0.536775" stop-color="#EBEDF0" stop-opacity="0.845525"/>
      <stop offset="1" stop-color="#E0E4E7" stop-opacity="0.01"/>
    </radialGradient>
    <linearGradient id="paint1_linear_1841_18534" x1="45.3849" y1="89.0456" x2="46.3458" y2="91.1007" gradientUnits="userSpaceOnUse">
      <stop stop-color="#E1E7EA"/>
      <stop offset="1" stop-color="#D0D6DC"/>
    </linearGradient>
    <linearGradient id="paint2_linear_1841_18534" x1="75.9366" y1="86.5792" x2="77.6949" y2="90.2468" gradientUnits="userSpaceOnUse">
      <stop stop-color="#E1E7EA"/>
      <stop offset="1" stop-color="#D0D6DC"/>
    </linearGradient>
    <linearGradient id="paint3_linear_1841_18534" x1="20.3093" y1="79.5919" x2="21.3042" y2="83.5556" gradientUnits="userSpaceOnUse">
      <stop stop-color="#FBFBFB"/>
      <stop offset="1" stop-color="#D9DFE3"/>
    </linearGradient>
    <linearGradient id="paint4_linear_1841_18534" x1="88.4794" y1="23.3629" x2="90.1614" y2="29.179" gradientUnits="userSpaceOnUse">
      <stop stop-color="#ECECEC"/>
      <stop offset="0.717538" stop-color="#E1E7EA"/>
      <stop offset="1" stop-color="#BCC3CA"/>
    </linearGradient>
    <linearGradient id="paint5_linear_1841_18534" x1="90.831" y1="25.7521" x2="97.9645" y2="28.3484" gradientUnits="userSpaceOnUse">
      <stop stop-color="#BAC6D2"/>
      <stop offset="1" stop-color="#7F8F9F"/>
    </linearGradient>
    <linearGradient id="paint6_linear_1841_18534" x1="91.8402" y1="25.3898" x2="92.9405" y2="27.6123" gradientUnits="userSpaceOnUse">
      <stop stop-color="#E1E7EA"/>
      <stop offset="1" stop-color="#D0D6DC"/>
    </linearGradient>
    <linearGradient id="paint7_linear_1841_18534" x1="24.3111" y1="46.6898" x2="20.3937" y2="40.0741" gradientUnits="userSpaceOnUse">
      <stop stop-color="#DAE2E6"/>
      <stop offset="0.58" stop-color="#E3EBEF"/>
      <stop offset="1" stop-color="#EDF6F9"/>
    </linearGradient>
    <linearGradient id="paint8_linear_1841_18534" x1="52.7789" y1="79.3686" x2="59.3894" y2="89.6522" gradientUnits="userSpaceOnUse">
      <stop stop-color="#C4CDD1"/>
      <stop offset="1" stop-color="#C6CFD3" stop-opacity="0.01"/>
    </linearGradient>
    <linearGradient id="paint9_linear_1841_18534" x1="56.0143" y1="79.5241" x2="56.0143" y2="74.4005" gradientUnits="userSpaceOnUse">
      <stop stop-color="#7A87AF"/>
      <stop offset="1" stop-color="#444F77"/>
    </linearGradient>
    <linearGradient id="paint10_linear_1841_18534" x1="63.9769" y1="79.5241" x2="63.9769" y2="74.4005" gradientUnits="userSpaceOnUse">
      <stop stop-color="#7A87AF"/>
      <stop offset="1" stop-color="#444F77"/>
    </linearGradient>
    <linearGradient id="paint11_linear_1841_18534" x1="66.2421" y1="79.8442" x2="66.2421" y2="71.709" gradientUnits="userSpaceOnUse">
      <stop stop-color="#7A87AF"/>
      <stop offset="1" stop-color="#444F77"/>
    </linearGradient>
    <linearGradient id="paint12_linear_1841_18534" x1="70.2458" y1="68.8477" x2="59.758" y2="80.0893" gradientUnits="userSpaceOnUse">
      <stop stop-color="#E5E9F0"/>
      <stop offset="1" stop-color="#D2DAE8"/>
    </linearGradient>
  </defs>
</svg>