<svg xmlns="http://www.w3.org/2000/svg" width="160" height="160" viewBox="0 0 160 160" fill="none">
  <g clip-path="url(#clip0_1841_18368)">
    <path d="M143.96 29.2969H19.149C17.4651 29.2979 15.8506 29.9673 14.6599 31.1579C13.4692 32.3486 12.7999 33.9632 12.7988 35.647V150.162C12.7999 151.846 13.4692 153.461 14.6599 154.652C15.8506 155.842 17.4651 156.512 19.149 156.513H143.96C145.644 156.512 147.259 155.842 148.45 154.652C149.64 153.461 150.31 151.846 150.311 150.162V35.647C150.31 33.9631 149.64 32.3484 148.45 31.1577C147.259 29.967 145.644 29.2977 143.96 29.2969Z" fill="#C6C6C6"/>
    <path d="M135.745 116.719H27.3677C23.8609 116.719 21.0176 113.876 21.0176 110.369V9.18903C21.0176 5.68215 23.8609 2.83887 27.3677 2.83887H135.745C139.252 2.83887 142.095 5.68215 142.095 9.18903V110.369C142.095 113.876 139.252 116.719 135.745 116.719Z" fill="#F9F9F9"/>
    <path d="M23.0281 112.379V11.1995C23.0281 7.69264 25.8713 4.84936 29.3782 4.84936H137.755C138.994 4.84936 140.145 5.20936 141.122 5.82247C139.999 4.03231 138.014 2.83887 135.745 2.83887H27.3677C23.8609 2.83887 21.0176 5.68215 21.0176 9.18903V110.369C21.0176 112.639 22.211 114.624 24.0012 115.747C23.3881 114.77 23.0281 113.619 23.0281 112.38V112.379Z" fill="url(#paint0_linear_1841_18368)"/>
    <path d="M122.41 24.2158H40.7031V28.8722H122.41V24.2158ZM122.41 41.9955H40.7031V46.6519H122.41V41.9955ZM122.41 59.7791H40.7031V64.4355H122.41V59.7791ZM122.41 77.5588H40.7031V82.2158H122.41V77.5588Z" fill="white"/>
    <path d="M50.4375 62.5312L70.9693 83.0637H50.4375V62.5312Z" fill="url(#paint1_linear_1841_18368)"/>
    <path d="M150.311 84.7559V37.5146L142.094 29.2969V84.7552H150.311V84.7559Z" fill="#C6C6C6"/>
    <path d="M159.936 89.0295L151.083 151.7C150.641 154.833 147.959 157.161 144.795 157.161H18.3153C15.1514 157.161 12.4701 154.833 12.0275 151.7L0.0635438 67.0171C-0.476128 63.1941 2.49043 59.7784 6.35141 59.7784H45.4111C48.575 59.7784 51.2563 62.1069 51.6989 65.2394L53.2668 76.3292C53.7094 79.4623 56.3907 81.7908 59.5547 81.7908H153.65C157.509 81.7908 160.477 85.2066 159.937 89.0295H159.936Z" fill="url(#paint2_linear_1841_18368)"/>
    <path d="M128.569 129.208H34.5432C34.0278 129.208 33.5302 129.02 33.1436 128.679C32.7569 128.338 32.5078 127.868 32.4429 127.357L31.2665 118.043C31.2291 117.745 31.2555 117.442 31.344 117.155C31.4324 116.868 31.5809 116.603 31.7795 116.378C31.9781 116.153 32.2223 115.972 32.496 115.849C32.7697 115.725 33.0665 115.661 33.3668 115.661H129.745C130.045 115.661 130.342 115.725 130.616 115.849C130.89 115.972 131.134 116.153 131.332 116.378C131.531 116.603 131.68 116.868 131.768 117.155C131.856 117.442 131.883 117.745 131.845 118.043L130.669 127.357C130.604 127.868 130.355 128.338 129.968 128.679C129.582 129.02 129.084 129.208 128.569 129.208Z" fill="#D5D5D5"/>
  </g>
  <defs>
    <linearGradient id="paint0_linear_1841_18368" x1="85.2799" y1="63.4959" x2="4.97169" y2="-16.8129" gradientUnits="userSpaceOnUse">
      <stop stop-color="white"/>
    </linearGradient>
    <linearGradient id="paint1_linear_1841_18368" x1="64.0027" y1="86.3581" x2="39.185" y2="61.5411" gradientUnits="userSpaceOnUse">
      <stop stop-color="#C2CECE" stop-opacity="0"/>
      <stop offset="0.179" stop-color="#AFBCBC" stop-opacity="0.179"/>
      <stop offset="1" stop-color="#5B6A6A"/>
    </linearGradient>
    <linearGradient id="paint2_linear_1841_18368" x1="79.9999" y1="59.7784" x2="79.9999" y2="157.161" gradientUnits="userSpaceOnUse">
      <stop stop-color="#EEF0F4"/>
      <stop offset="0.927" stop-color="#E4E4E4"/>
    </linearGradient>
    <clipPath id="clip0_1841_18368">
      <rect width="160" height="160" fill="white"/>
    </clipPath>
  </defs>
</svg>