<svg xmlns="http://www.w3.org/2000/svg" width="16" height="16" viewBox="0 0 16 16" fill="none">
  <rect width="16" height="16" rx="3" fill="#4ACB5F"/>
  <path d="M12.7114 5.79175L7.33099 11.6876C7.15931 11.875 6.91125 12 6.66315 12C6.41505 12 6.16712 11.8958 5.9953 11.6876L3.28616 8.72924C2.90461 8.31261 2.90461 7.66678 3.28616 7.25C3.66772 6.83337 4.25918 6.83337 4.64087 7.25L6.66325 9.45829L11.3759 4.31247C11.7574 3.89584 12.3489 3.89584 12.7306 4.31247C13.093 4.72925 13.0929 5.37508 12.7114 5.79175Z" fill="#28A745"/>
  <path fill-rule="evenodd" clip-rule="evenodd" d="M7.33099 11.6876L12.7114 5.79175C13.0929 5.37508 13.093 4.72925 12.7306 4.31247C12.3489 3.89584 11.7574 3.89584 11.3759 4.31247L6.66325 9.45829L4.64087 7.25C4.25918 6.83337 3.66772 6.83337 3.28616 7.25C2.90461 7.66678 2.90461 8.31261 3.28616 8.72924L5.9953 11.6876C6.16712 11.8958 6.41505 12 6.66315 12C6.91125 12 7.15931 11.875 7.33099 11.6876Z" fill="white"/>
</svg>