<svg xmlns="http://www.w3.org/2000/svg" width="20" height="20" viewBox="0 0 20 20" fill="none">
  <path d="M14.4629 3.9657H13.7371L13.8057 4.21141C13.9314 4.69713 13.8286 5.19998 13.5257 5.59998C13.2229 5.99427 12.76 6.22284 12.2571 6.22284H7.49143C6.98857 6.22284 6.52571 5.99427 6.22286 5.59998C5.92 5.19998 5.81714 4.69713 5.94286 4.21141L6.01143 3.9657H5.28571C4.02286 3.9657 3 4.98856 3 6.25141V15.7143C3 16.9771 4.02286 18 5.28571 18H14.4629C15.7257 18 16.7486 16.9771 16.7486 15.7143V6.25141C16.7486 4.98856 15.7257 3.9657 14.4629 3.9657ZM9.87429 15.2326C7.86971 15.2326 6.23943 13.6017 6.23943 11.5971C6.23943 9.59256 7.87029 7.9617 9.87429 7.9617C11.8783 7.9617 13.5091 9.59256 13.5091 11.5971C13.5091 13.6017 11.8789 15.2326 9.87429 15.2326Z" fill="white"/>
  <path d="M6.9373 4.47657L7.31673 3.04057C7.42473 2.63086 7.75159 2.31314 8.16359 2.216C8.73502 2.08114 9.30416 2.008 9.8733 2C10.4424 2.008 11.0116 2.08114 11.5824 2.216C11.995 2.31371 12.3213 2.63143 12.4293 3.04057L12.8087 4.47657C12.9047 4.83886 12.631 5.19429 12.2562 5.19429H7.48873C7.11501 5.19429 6.8413 4.83943 6.9373 4.47657Z" fill="white"/>
  <path d="M9.87444 8.99023C8.43729 8.99023 7.26758 10.1594 7.26758 11.5971C7.26758 13.0348 8.43672 14.2039 9.87444 14.2039C11.3122 14.2039 12.4813 13.0348 12.4813 11.5971C12.4813 10.1594 11.3116 8.99023 9.87444 8.99023ZM11.2584 11.4662L9.73501 12.6937C9.64301 12.7674 9.52929 12.8074 9.41215 12.8074C9.39272 12.8074 9.37329 12.8062 9.35386 12.8039C9.21729 12.7885 9.09215 12.7188 9.00758 12.6102L8.40872 11.8462C8.23329 11.6222 8.27272 11.2994 8.49615 11.1239C8.71958 10.9479 9.04301 10.9885 9.21844 11.2108L9.49558 11.5645L10.6133 10.6639C10.835 10.4862 11.1584 10.5211 11.3367 10.7422C11.5144 10.9645 11.4796 11.2879 11.2584 11.4662Z" fill="white"/>
</svg>