<svg xmlns="http://www.w3.org/2000/svg" width="20" height="20" viewBox="0 0 20 20" fill="none">
  <path d="M17.3554 4.98901H15.1327V9.24773C14.5894 9.22422 14.3494 9.21108 14.093 9.21108C12.96 9.21108 11.8604 9.45433 10.814 9.93419C10.591 10.0288 10.4982 10.0839 9.84432 10.4174C9.43516 10.2087 9.58032 10.2832 9.20785 10.0908C8.06484 9.50766 6.84855 9.21108 5.59559 9.21108C5.48228 9.21108 5.36565 9.21108 5.24903 9.21775L4.5559 9.24773V4.98901H2.33323C2.14994 4.98901 2 5.13897 2 5.32225V13.3399H17.6886V5.32225C17.6886 5.13897 17.5387 4.98901 17.3554 4.98901Z" fill="white"/>
  <path d="M2.33323 15.3864H7.59029L7.23299 16.8329H7.07978C6.89574 16.8329 6.74655 16.9821 6.74655 17.1661V17.6672C6.74655 17.8512 6.89574 18.0004 7.07978 18.0004H12.6089C12.7929 18.0004 12.9421 17.8512 12.9421 17.6672V17.1661C12.9421 16.9821 12.7929 16.8329 12.6089 16.8329H12.4556L12.0983 15.3864H17.3554C17.5394 15.3864 17.6886 15.2372 17.6886 15.0532V14.0068H2V15.0532C2 15.2372 2.14919 15.3864 2.33323 15.3864Z" fill="white"/>
  <path d="M9.51137 9.49776V2.96305C8.17844 2.35656 6.74887 2.03667 5.22266 2V8.55139C6.71554 8.48807 8.14844 8.80131 9.51137 9.49776Z" fill="white"/>
  <path d="M14.4665 8.55139V2C12.9402 2.03667 11.5107 2.35656 10.1777 2.96305V9.49776C11.5407 8.80131 12.9736 8.48807 14.4665 8.55139Z" fill="white"/>
</svg>