<svg xmlns="http://www.w3.org/2000/svg" width="17" height="16" viewBox="0 0 17 16" fill="none">
  <path d="M15.3571 6.85714H9.64286V1.14286C9.64286 0.839753 9.52245 0.549063 9.30812 0.334735C9.0938 0.120408 8.80311 0 8.5 0C8.1969 0 7.90621 0.120408 7.69188 0.334735C7.47755 0.549063 7.35714 0.839753 7.35714 1.14286V6.85714H1.64286C1.33975 6.85714 1.04906 6.97755 0.834735 7.19188C0.620408 7.40621 0.5 7.6969 0.5 8C0.5 8.30311 0.620408 8.5938 0.834735 8.80812C1.04906 9.02245 1.33975 9.14286 1.64286 9.14286H7.35714V14.8571C7.35714 15.1602 7.47755 15.4509 7.69188 15.6653C7.90621 15.8796 8.1969 16 8.5 16C8.80311 16 9.0938 15.8796 9.30812 15.6653C9.52245 15.4509 9.64286 15.1602 9.64286 14.8571V9.14286H15.3571C15.6602 9.14286 15.9509 9.02245 16.1653 8.80812C16.3796 8.5938 16.5 8.30311 16.5 8C16.5 7.6969 16.3796 7.40621 16.1653 7.19188C15.9509 6.97755 15.6602 6.85714 15.3571 6.85714Z" fill="white"/>
</svg>