<svg xmlns="http://www.w3.org/2000/svg" width="16" height="16" viewBox="0 0 16 16" fill="none">
  <rect width="16" height="16" rx="3" fill="#FF5674"/>
  <path d="M12.7128 3.28718C12.6218 3.19613 12.5137 3.12391 12.3947 3.07464C12.2758 3.02536 12.1483 3 12.0196 3C11.8908 3 11.7633 3.02536 11.6444 3.07464C11.5254 3.12391 11.4173 3.19613 11.3263 3.28718L8 6.61347L4.67372 3.28718C4.58268 3.19613 4.4746 3.12391 4.35565 3.07464C4.2367 3.02536 4.1092 3 3.98045 3C3.8517 3 3.7242 3.02536 3.60525 3.07464C3.4863 3.12391 3.37822 3.19613 3.28718 3.28718C3.19613 3.37822 3.12391 3.4863 3.07464 3.60525C3.02536 3.7242 3 3.8517 3 3.98045C3 4.1092 3.02536 4.2367 3.07464 4.35565C3.12391 4.4746 3.19613 4.58268 3.28718 4.67372L6.61347 8L3.28718 11.3263C3.19613 11.4173 3.12391 11.5254 3.07464 11.6444C3.02536 11.7633 3 11.8908 3 12.0196C3 12.1483 3.02536 12.2758 3.07464 12.3947C3.12391 12.5137 3.19613 12.6218 3.28718 12.7128C3.37822 12.8039 3.4863 12.8761 3.60525 12.9254C3.7242 12.9746 3.8517 13 3.98045 13C4.1092 13 4.2367 12.9746 4.35565 12.9254C4.4746 12.8761 4.58268 12.8039 4.67372 12.7128L8 9.38654L11.3263 12.7128C11.4173 12.8039 11.5254 12.8761 11.6444 12.9254C11.7633 12.9746 11.8908 13 12.0196 13C12.1483 13 12.2758 12.9746 12.3947 12.9254C12.5137 12.8761 12.6218 12.8039 12.7128 12.7128C12.8039 12.6218 12.8761 12.5137 12.9254 12.3947C12.9746 12.2758 13 12.1483 13 12.0196C13 11.8908 12.9746 11.7633 12.9254 11.6444C12.8761 11.5254 12.8039 11.4173 12.7128 11.3263L9.38654 8L12.7128 4.67372C12.8039 4.58268 12.8761 4.4746 12.9254 4.35565C12.9746 4.2367 13 4.1092 13 3.98045C13 3.8517 12.9746 3.7242 12.9254 3.60525C12.8761 3.4863 12.8039 3.37822 12.7128 3.28718Z" fill="white"/>
</svg>