<svg xmlns="http://www.w3.org/2000/svg" width="20" height="20" viewBox="0 0 20 20" fill="none">
  <path fill-rule="evenodd" clip-rule="evenodd" d="M11.6663 6.07143C11.6663 8.04386 10.0673 9.64286 8.09487 9.64286C6.12244 9.64286 4.52344 8.04386 4.52344 6.07143C4.52344 4.09899 6.12244 2.5 8.09487 2.5C10.0673 2.5 11.6663 4.09899 11.6663 6.07143ZM10.2377 6.07143C10.2377 7.25493 9.27837 8.21429 8.09487 8.21429C6.91137 8.21429 5.95201 7.25493 5.95201 6.07143C5.95201 4.88796 6.91137 3.92857 8.09487 3.92857C9.27837 3.92857 10.2377 4.88796 10.2377 6.07143Z" fill="#385B8B"/>
  <path d="M8.09459 11.0715C8.88752 11.0715 9.60066 11.1078 10.2374 11.1675V12.6029C9.61295 12.5397 8.90023 12.5 8.09459 12.5C5.58343 12.5 3.97454 12.8851 3.12809 13.1695C3.36019 14.8098 4.76994 16.0715 6.47437 16.0715H9.7148C10.0467 16.0715 10.3673 16.0236 10.6703 15.9345C11.036 16.4179 11.6019 16.7414 12.2446 16.7815C11.5097 17.237 10.643 17.5 9.7148 17.5H6.47437C3.81879 17.5 1.66602 15.3473 1.66602 12.6917C1.66602 12.4115 1.81292 12.154 2.07041 12.0435C2.84597 11.7104 4.76742 11.0715 8.09459 11.0715Z" fill="#385B8B"/>
  <path d="M18.126 10.2024C18.1973 9.95979 18.1372 9.68686 17.9458 9.4955L17.1703 8.71993C16.9789 8.52857 16.706 8.4685 16.4634 8.53971C16.3523 8.57229 16.2477 8.63236 16.1601 8.71993L15.5938 9.28629L17.3795 11.072L17.9458 10.5056C18.0334 10.4181 18.0935 10.3134 18.126 10.2024Z" fill="#385B8B"/>
  <path d="M11.666 13.2143V15H13.4517L16.666 11.7857L14.8803 10L11.666 13.2143Z" fill="#385B8B"/>
</svg>