<svg xmlns="http://www.w3.org/2000/svg" width="20" height="20" viewBox="0 0 20 20" fill="none">
  <path d="M2.86431 4.73435H15.5745V3.39679C15.5745 3.17917 15.3953 3 15.1713 3H2.86431C1.73039 3.0223 1.72987 4.71209 2.86431 4.73435Z" fill="white"/>
  <path d="M12.4512 10.8718C12.4512 11.691 13.1232 12.363 13.9423 12.363H17.9999V9.38063H13.9423C13.1232 9.38063 12.4512 10.0462 12.4512 10.8718ZM14.3199 10.8718C14.3154 11.5085 13.3601 11.5075 13.3599 10.8718C13.3602 10.2361 14.3155 10.2351 14.3199 10.8718Z" fill="white"/>
  <path d="M17.2062 5.37443H2.86397C2.53761 5.37443 2.2432 5.27205 2 5.09283V14.9807C2 15.5567 2.46718 16.0303 3.03678 16.0303H17.2062C17.6414 16.0303 17.9998 15.6719 17.9998 15.2239V13.0031H13.9422C11.125 12.9078 11.1285 8.8307 13.9423 8.74079H17.9998V6.18082C17.9998 5.73282 17.6414 5.37443 17.2062 5.37443Z" fill="white"/>
</svg>